PathFileType	4	(X/Y/Z)	 s03c0201.trc
DataRate	CameraRate	NumFrames	NumMarkers	Units	OrigDataRate	OrigDataStartFrame	OrigNumFrames
200	200	4	52	mm	200	751	2000
Frame#	Time	racr			lacr			c7			jug			rlel			rdr			llel			ldr			s2			lic			ric			lasi			rasi			rpsi			lpsi			rgt			lgt			rth1			rth2			rth3			rth4			rlfc			rmfc			rsh1			rsh2			rsh3			rsh4			rlmal			rmmal			rcal			rtoe			rmt5			rmt1			lth1			lth2			lth4			lth3			llfc			lmfc			lsh1			lsh2			lsh3			lsh4			llmal			lmmal			lcal			ltoe			lmt1			lmt5			SBIKE			LBIKE			RBIKE			
		X1	Y1	Z1	X2	Y2	Z2	X3	Y3	Z3	X4	Y4	Z4	X5	Y5	Z5	X6	Y6	Z6	X7	Y7	Z7	X8	Y8	Z8	X9	Y9	Z9	X10	Y10	Z10	X11	Y11	Z11	X12	Y12	Z12	X13	Y13	Z13	X14	Y14	Z14	X15	Y15	Z15	X16	Y16	Z16	X17	Y17	Z17	X18	Y18	Z18	X19	Y19	Z19	X20	Y20	Z20	X21	Y21	Z21	X22	Y22	Z22	X23	Y23	Z23	X24	Y24	Z24	X25	Y25	Z25	X26	Y26	Z26	X27	Y27	Z27	X28	Y28	Z28	X29	Y29	Z29	X30	Y30	Z30	X31	Y31	Z31	X32	Y32	Z32	X33	Y33	Z33	X34	Y34	Z34	X35	Y35	Z35	X36	Y36	Z36	X37	Y37	Z37	X38	Y38	Z38	X39	Y39	Z39	X40	Y40	Z40	X41	Y41	Z41	X42	Y42	Z42	X43	Y43	Z43	X44	Y44	Z44	X45	Y45	Z45	X46	Y46	Z46	X47	Y47	Z47	X48	Y48	Z48	X49	Y49	Z49	X50	Y50	Z50	X51	Y51	Z51	X52	Y52	Z52	
751	3.7550	547.445490	1404.510133	-107.595289	489.144257	1421.832041	-402.926917	443.551571	1488.257969	-242.128055	462.713271	1318.170039	-249.089761	580.736751	1200.658028	92.801571	747.950863	993.966029	-5.689380	519.833497	1168.322685	-523.966236	736.214222	982.918761	-416.649484	-78.264930	1210.879568	-180.562477	75.322778	1249.186744	-365.153124	109.097248	1234.856279	-9.701245	103.890635	1185.288340	-335.317001	130.255914	1168.915330	-58.608604	-44.833200	1257.810804	-129.525234	-49.359521	1265.596564	-212.142680	36.208273	1110.683788	3.958034	32.736874	1178.638099	-391.049944	107.780836	962.021784	14.881451	173.326292	901.897834	14.702131	202.174187	821.613549	3.302358	203.820919	921.962229	6.659265	251.428643	704.743461	-32.353872	260.840354	694.552704	-151.179265	189.135435	549.016827	-12.658581	180.054103	461.957304	-31.919351	128.904135	390.490212	-37.445750	208.226483	455.192476	-56.310687	73.773221	269.716437	-64.926320	106.172855	279.972353	-145.101594	9.487174	235.186050	-106.462733	313.209621	169.211263	-106.101957	192.221730	172.495253	-38.548515	223.727262	188.394996	-150.844401	145.851283	1114.320703	-438.819068	230.705071	1106.330567	-453.233621	245.688517	1137.279166	-438.483446	301.959711	1054.756584	-469.607371	433.583082	1007.132300	-473.136593	455.937745	990.825333	-342.321135	346.878193	855.799511	-475.114645	325.651350	777.322825	-447.707207	262.339119	714.179551	-434.458867	354.768892	765.644165	-425.955109	195.122948	610.397093	-404.514239	234.930336	623.615510	-317.121229	124.018703	578.933161	-351.124160	424.522571	503.972194	-353.794662	330.340091	514.134038	-310.444240	301.735815	505.470302	-424.080630	-211.305829	947.436125	-225.718352	-4.412958	84.740518	-432.918574	-8.784445	81.128418	-32.466417	
752	3.7600	546.875533	1403.235246	-110.458815	486.515979	1420.398056	-404.608677	442.299807	1486.493889	-244.313147	461.671788	1316.393800	-251.192225	581.384864	1200.903459	91.293090	747.952585	993.988980	-7.049005	518.874605	1167.065139	-524.360314	735.828501	982.842503	-416.467552	-79.890220	1209.755897	-177.889256	73.418532	1248.600036	-364.813000	107.993987	1234.753008	-9.151278	102.154262	1185.135882	-335.208494	128.756699	1168.466128	-57.790186	-46.023618	1257.136633	-129.263580	-51.040433	1264.914702	-211.856130	35.279842	1110.442514	4.806720	31.202198	1177.550818	-390.927682	109.286618	962.626499	15.176938	175.967677	903.794600	14.737644	206.416537	824.020488	3.805143	205.979159	924.392535	6.663389	257.049765	707.503565	-30.947938	266.096849	697.119369	-149.839326	191.175682	552.969063	-11.594854	180.226743	466.498209	-30.887340	126.937008	396.072966	-36.710298	207.972444	459.205082	-55.612487	68.497638	277.082908	-64.509656	101.466548	286.545516	-144.874654	3.418336	244.454169	-106.376325	305.100506	169.335623	-106.134216	184.334990	176.617369	-38.767043	216.373648	191.441920	-151.059424	145.346067	1112.018288	-437.759535	230.495890	1103.919409	-451.183222	245.362421	1135.139637	-436.929410	301.994082	1051.957858	-465.971477	433.697041	1005.841052	-468.804191	454.915139	990.057358	-337.674988	349.392584	852.938290	-472.097715	329.712076	774.546234	-447.140233	266.943572	709.608745	-433.057921	358.352335	762.638985	-423.363664	201.367508	604.242725	-404.172710	240.035585	618.060269	-316.979093	130.500815	570.758553	-351.363316	432.941190	503.577095	-353.530695	337.927621	511.449859	-310.342077	310.227866	502.100358	-424.050637	-211.321595	947.445247	-225.549454	-4.414680	84.776355	-432.873121	-8.750676	81.141218	-32.454030	
753	3.7650	546.235101	1401.395633	-113.291409	483.926347	1418.841501	-406.157364	441.140649	1484.533534	-246.334545	460.405514	1314.394609	-253.362191	581.905540	1200.904353	89.876361	748.228597	993.711327	-7.433338	517.846297	1165.839325	-524.896146	735.379587	982.802718	-416.408890	-81.462526	1209.740404	-177.322523	71.319060	1248.141677	-364.548680	106.678728	1234.412958	-8.657070	100.019269	1184.514338	-334.377477	127.229275	1167.809998	-56.962608	-47.385083	1256.509802	-129.025504	-52.781643	1264.166660	-211.577261	34.216887	1110.112373	5.456623	29.643989	1176.219489	-390.901015	110.761482	963.194381	15.409686	178.684069	905.902109	14.712200	210.771715	826.645622	4.148112	208.251069	927.044208	6.472527	263.003041	710.527986	-29.650391	271.612756	700.076569	-148.775665	193.712674	557.250271	-10.547085	180.734825	471.223724	-29.851155	125.344793	402.173041	-35.952989	207.962192	463.255092	-54.979047	63.728381	285.066699	-63.997784	96.824857	293.774521	-144.379859	-2.187642	254.456917	-106.160423	297.199920	169.778709	-106.251626	176.768762	181.107706	-39.259458	209.258866	195.007550	-151.247846	144.928938	1109.374135	-436.186215	230.079659	1101.145181	-449.190340	244.865468	1132.514711	-435.310351	301.673226	1048.907499	-462.759807	433.437596	1003.482763	-464.463999	453.540874	988.294558	-333.103244	351.467770	849.190651	-469.034243	332.947033	770.282174	-444.884858	271.091839	704.267533	-431.513458	361.523717	758.895022	-421.252417	207.225516	597.314672	-403.807419	245.170736	611.446197	-316.236086	136.765625	561.696288	-351.409605	441.101531	502.791608	-353.227695	345.250127	508.163763	-310.251769	318.469058	498.091972	-423.952792	-211.345894	947.439084	-225.315511	-4.422236	84.825925	-432.833062	-8.734479	81.129048	-32.425196	
754	3.7700	545.711083	1399.272585	-116.029798	481.349838	1417.160036	-407.463477	440.006924	1482.354898	-248.167087	459.205661	1312.186881	-255.462155	582.353213	1200.689615	88.683310	748.303704	993.429961	-8.002970	516.607787	1164.722155	-525.834500	734.873078	982.793460	-416.498547	-82.879194	1208.760871	-179.566373	69.040641	1247.848223	-364.474313	105.448762	1233.918905	-8.214547	97.804929	1183.937734	-334.057683	125.583330	1166.818009	-56.427184	-48.835315	1255.751031	-128.816510	-54.547478	1263.335736	-211.363717	33.075990	1109.628464	5.972226	27.583788	1174.455107	-389.941869	112.166869	964.027189	15.737632	181.423274	908.082813	14.588959	215.217928	829.576602	4.357108	210.440649	929.798658	6.297896	269.266823	713.907802	-28.549641	277.439492	703.258361	-147.750658	196.613629	561.834290	-9.594482	181.097480	476.435664	-29.502806	124.234248	408.661471	-35.201979	208.379941	467.752131	-54.326095	59.402200	293.453107	-63.458982	92.769230	301.511229	-144.085279	-7.298565	264.848086	-105.895242	289.467161	170.697907	-106.235785	169.662454	186.176080	-39.457574	202.424129	198.811375	-151.165009	144.778390	1106.140660	-432.978453	229.438601	1097.990137	-447.257968	244.374851	1129.626696	-434.258561	301.028805	1045.440263	-459.791217	432.858397	1000.223029	-460.399640	451.766644	985.472704	-328.806159	353.025762	844.622081	-465.990845	335.701460	765.230004	-442.661082	274.892048	698.263055	-429.777839	364.445160	753.856966	-418.436015	212.877953	589.539788	-403.325631	250.030181	604.294296	-315.422481	143.109007	551.761301	-351.363417	448.734504	501.380199	-353.026534	352.283753	504.282011	-310.183029	326.362471	493.493944	-423.876898	-210.718396	947.233274	-224.699300	-4.416845	84.863538	-432.786546	-8.738605	81.113257	-32.372555	
